<?xml version="1.0" encoding="UTF-8"?>
<svg xmlns="http://www.w3.org/2000/svg" xmlns:xlink="http://www.w3.org/1999/xlink" width="50pt" height="50pt" viewBox="0 0 50 50" version="1.1">
<g id="surface1">
<path style=" stroke:none;fill-rule:nonzero;fill:rgb(3.529412%,39.215686%,68.627451%);fill-opacity:1;" d="M 49.546875 12.480469 L 0.453125 12.480469 C 0.203125 12.480469 0 12.683594 0 12.933594 L 0 36.546875 C 0 37.082031 0.4375 37.519531 0.972656 37.519531 L 25.410156 37.519531 C 25.53125 37.519531 25.648438 37.472656 25.730469 37.386719 L 49.867188 13.253906 C 50.152344 12.96875 49.949219 12.480469 49.546875 12.480469 Z M 49.546875 12.480469 "/>
<path style=" stroke:none;fill-rule:nonzero;fill:rgb(0%,30.980392%,61.176471%);fill-opacity:1;" d="M 2.46875 12.480469 L 0.453125 12.480469 C 0.390625 12.480469 0.332031 12.492188 0.277344 12.515625 C 0.113281 12.585938 0 12.746094 0 12.933594 L 0 36.546875 C 0 37.082031 0.4375 37.519531 0.972656 37.519531 L 2.011719 37.519531 L 2.011719 12.933594 C 2.011719 12.683594 2.214844 12.480469 2.46875 12.480469 Z M 2.46875 12.480469 "/>
<path style=" stroke:none;fill-rule:nonzero;fill:rgb(94.901961%,94.901961%,94.901961%);fill-opacity:1;" d="M 30.351562 24.460938 L 29.253906 24.460938 L 29.253906 20.445312 L 30.351562 20.445312 C 31.816406 20.445312 32.980469 20.929688 32.980469 22.429688 C 32.980469 23.976562 31.816406 24.460938 30.351562 24.460938 M 16.945312 27.042969 L 18.527344 22.058594 L 18.554688 22.058594 L 20.101562 27.058594 C 19.105469 27.421875 17.910156 27.414062 16.945312 27.042969 Z M 30.058594 17.1875 L 25.074219 17.183594 L 25.074219 29.03125 L 20.722656 17.183594 L 16.40625 17.183594 L 12.6875 27.089844 C 12.296875 24.59375 9.710938 23.730469 7.671875 23.085938 C 6.332031 22.652344 4.910156 22.015625 4.921875 21.316406 C 4.933594 20.742188 5.6875 20.210938 7.179688 20.289062 C 8.179688 20.339844 9.0625 20.421875 10.820312 21.269531 L 12.558594 18.253906 C 10.949219 17.4375 8.730469 16.921875 6.914062 16.921875 L 6.902344 16.921875 C 3.480469 16.921875 0.769531 18.734375 0.722656 21.644531 C 0.671875 24.546875 2.875 25.765625 5.824219 26.675781 C 7.203125 27.105469 8.335938 27.476562 8.320312 28.269531 C 8.316406 28.566406 8.203125 28.832031 7.996094 29.046875 C 7.652344 29.402344 7.121094 29.539062 6.390625 29.554688 C 4.976562 29.578125 3.929688 29.359375 2.261719 28.375 L 0.722656 31.429688 C 3.730469 33.140625 8.160156 33.703125 10.914062 31.492188 C 10.976562 31.4375 11.035156 31.390625 11.09375 31.339844 L 10.597656 32.667969 L 15.121094 32.667969 L 15.878906 30.363281 C 17.496094 30.898438 19.402344 30.9375 21.136719 30.382812 L 21.871094 32.667969 L 29.253906 32.667969 L 29.253906 27.886719 L 30.863281 27.886719 C 34.753906 27.886719 37.0625 25.90625 37.0625 22.582031 C 37.0625 18.882812 34.820312 17.1875 30.058594 17.1875 "/>
<path style=" stroke:none;fill-rule:nonzero;fill:rgb(83.921569%,83.921569%,84.705882%);fill-opacity:1;" d="M 4.496094 29.363281 C 3.824219 29.191406 3.128906 28.886719 2.261719 28.375 L 0.722656 31.429688 C 1.453125 31.84375 2.234375 32.183594 3.058594 32.433594 Z M 4.496094 29.363281 "/>
<path style=" stroke:none;fill-rule:nonzero;fill:rgb(83.921569%,83.921569%,84.705882%);fill-opacity:1;" d="M 7.160156 27.132812 L 7.160156 27.082031 C 4.574219 26.070312 2.960938 24.710938 3.007812 22.007812 C 3.046875 19.171875 5.257812 17.347656 8.097656 16.988281 C 7.691406 16.945312 7.292969 16.921875 6.914062 16.921875 L 6.902344 16.921875 C 3.480469 16.921875 0.769531 18.734375 0.722656 21.648438 C 0.671875 24.546875 2.875 25.765625 5.824219 26.675781 C 6.316406 26.828125 6.773438 26.972656 7.160156 27.132812 Z M 7.160156 27.132812 "/>
<path style=" stroke:none;fill-rule:nonzero;fill:rgb(83.921569%,83.921569%,84.705882%);fill-opacity:1;" d="M 18.578125 17.183594 L 16.40625 17.183594 L 10.597656 32.667969 L 13.515625 32.667969 Z M 18.578125 17.183594 "/>
<path style=" stroke:none;fill-rule:nonzero;fill:rgb(83.921569%,83.921569%,84.705882%);fill-opacity:1;" d="M 25 32.667969 L 27.949219 32.667969 L 27.949219 17.1875 L 25.074219 17.183594 L 25.074219 29.03125 L 25 28.828125 Z M 25 32.667969 "/>
</g>
</svg>
